# xmcd
#
# Track frame offsets: 
#        182
#        11615
#        23777
#        34780
#        47912
#        61750
#        72340
#        84877
#        97915
#        110930
#        120562
#        133172
#        142415
#        153145
#        166500
#        179825
#        190730
#
# Disc length: 2678 seconds
#
# Revision: 3
# Processed by: cddbd v1.4PL0 Copyright (c) Steve Scherf et al.
# Submitted via: ExactAudioCopy v0.90b4
#
DISCID=e50a7411
DTITLE=Freddy Fender - 16 Greatest Hits
DYEAR=1989
DGENRE=Pop
TTITLE0=Before the Next Teardrop Falls
TTITLE1=Wasted Days and Wasted Nights
TTITLE2=Mathilda
TTITLE3=Silver Wings
TTITLE4=Baby I Want to Love You
TTITLE5=A Man Can Cry
TTITLE6=Almost Persuaded
TTITLE7=The Girl Who Waits on Tables
TTITLE8=Going Out With the Tide
TTITLE9=But I Do
TTITLE10=Enter My Heart
TTITLE11=Running Back
TTITLE12=Wild Side of Life
TTITLE13=Just Because
TTITLE14=Mean Woman Blues
TTITLE15=The Rain Came
TTITLE16=Crazy Baby
EXTD=YEAR: 1989
EXTT0=
EXTT1=
EXTT2=
EXTT3=
EXTT4=
EXTT5=
EXTT6=
EXTT7=
EXTT8=
EXTT9=
EXTT10=
EXTT11=
EXTT12=
EXTT13=
EXTT14=
EXTT15=
EXTT16=
PLAYORDER=
